#N canvas 227 18 1163 746 10;
#X obj 261 447 gemwin;
#X obj 257 333 tgl 15 0 empty empty empty 17 7 0 10 -262144 -1 -1 0
1;
#X msg 301 302 create;
#X msg 325 335 destroy;
#X msg 343 370 dimen 600 600;
#X msg 346 410 color 1 3 4;
#X obj 511 281 tgl 15 0 empty empty empty 17 7 0 10 -262144 -1 -1 1
1;
#X obj 511 314 gemhead;
#X obj 511 355 colorRGB 0 0 1 1;
#X obj 511 386 alpha;
#X obj 512 461 translateXYZ;
#X obj 506 635 scaleXYZ;
#X floatatom 574 319 5 0 0 0 - - -, f 5;
#X floatatom 617 318 5 0 0 0 - - -, f 5;
#X floatatom 662 320 5 0 0 0 - - -, f 5;
#X floatatom 707 319 5 0 0 0 - - -, f 5;
#X floatatom 553 422 5 0 0 0 - - -, f 5;
#X floatatom 598 423 5 0 0 0 - - -, f 5;
#X floatatom 644 424 5 0 0 0 - - -, f 5;
#X floatatom 532 587 5 0 0 0 - - -, f 5;
#X floatatom 574 586 5 0 0 0 - - -, f 5;
#X floatatom 619 585 5 0 0 0 - - -, f 5;
#X obj 247 235 t b b b b b;
#X obj 356 142 bng 15 250 50 0 empty empty empty 17 7 0 10 -262144
-1 -1;
#X obj 398 98 tgl 15 0 empty empty empty 17 7 0 10 -262144 -1 -1 1
1;
#X obj 448 55 t f f f f;
#X obj 602 36 tgl 15 0 empty empty empty 17 7 0 10 -262144 -1 -1 1
1;
#X obj 599 84 metro 100;
#X obj 603 113 f;
#X obj 601 145 + 1;
#X floatatom 635 179 5 0 0 0 - - -, f 5;
#X obj 995 351 / 10;
#X obj 507 548 rotateXYZ;
#X floatatom 547 495 5 0 0 0 - - -, f 5;
#X floatatom 592 496 5 0 0 0 - - -, f 5;
#X floatatom 638 497 5 0 0 0 - - -, f 5;
#X obj 489 214 autoscale 0 1;
#X msg 432 174 0;
#X msg 477 171 10;
#X obj 505 682 rectangle 1;
#X connect 1 0 0 0;
#X connect 2 0 0 0;
#X connect 3 0 0 0;
#X connect 4 0 0 0;
#X connect 5 0 0 0;
#X connect 6 0 7 0;
#X connect 7 0 8 0;
#X connect 8 0 9 0;
#X connect 9 0 10 0;
#X connect 10 0 32 0;
#X connect 11 0 39 0;
#X connect 12 0 8 1;
#X connect 13 0 8 2;
#X connect 14 0 8 3;
#X connect 15 0 8 4;
#X connect 16 0 10 1;
#X connect 17 0 10 2;
#X connect 18 0 10 3;
#X connect 19 0 11 1;
#X connect 20 0 11 2;
#X connect 21 0 11 3;
#X connect 22 0 6 0;
#X connect 22 1 1 0;
#X connect 22 2 2 0;
#X connect 22 3 4 0;
#X connect 22 4 5 0;
#X connect 23 0 22 0;
#X connect 24 0 23 0;
#X connect 24 0 25 0;
#X connect 25 3 26 0;
#X connect 26 0 27 0;
#X connect 27 0 28 0;
#X connect 28 0 29 0;
#X connect 29 0 30 0;
#X connect 30 0 31 0;
#X connect 30 0 36 0;
#X connect 31 0 15 0;
#X connect 31 0 19 0;
#X connect 31 0 20 0;
#X connect 31 0 21 0;
#X connect 32 0 11 0;
#X connect 33 0 32 1;
#X connect 34 0 32 2;
#X connect 35 0 32 3;
#X connect 37 0 36 0;
#X connect 38 0 36 0;
